<?xml version="1.0"?>
<svg xmlns="http://www.w3.org/2000/svg" xmlns:xlink="http://www.w3.org/1999/xlink" xmlns:svgjs="http://svgjs.com/svgjs" version="1.1" width="512" height="512" x="0" y="0" viewBox="0 0 512 512" style="enable-background:new 0 0 512 512" xml:space="preserve" class=""><g>
<g xmlns="http://www.w3.org/2000/svg">
	<g>
		<path d="M45.054,302h-30c-8.291,0-15,6.709-15,15v180c0,8.291,6.709,15,15,15h30c24.814,0,45-20.186,45-45V347    C90.054,322.186,69.869,302,45.054,302z" fill="#f5f5f5" data-original="#000000" style="" class=""/>
	</g>
</g>
<g xmlns="http://www.w3.org/2000/svg">
	<g>
		<path d="M507.554,331.099c-1.8-2.999-4.199-5.4-6.899-7.5c-11.045-9.662-29.654-8.749-40.499,3.001l-68.101,78.6    c-9.262,10.578-20.184,16.8-35.099,16.8h-118.4c-8.401,0-15-6.601-15-15c0-8.401,6.599-15,15-15h93.5c16.5,0,30-13.5,30-30v-0.3    c-0.3-16.5-13.5-29.7-30-29.7h-56.3c-8.996,0-18.636-3.303-26.4-9.901c-36.599-32.1-90-34.2-129.3-6.899v184.499    c29.7,8.101,60.3,12.301,91.199,12.301h135.801c32.999,0,64.2-15.601,84-42.001l72.001-96    C513.56,360.209,514.352,341.3,507.554,331.099z" fill="#f5f5f5" data-original="#000000" style="" class=""/>
	</g>
</g>
<g xmlns="http://www.w3.org/2000/svg">
	<g>
		<path d="M241.055,120v78.978l21.68-14.458c5.038-3.37,11.601-3.37,16.64,0l21.68,14.458V120H241.055z" fill="#f5f5f5" data-original="#000000" style="" class=""/>
	</g>
</g>
<g xmlns="http://www.w3.org/2000/svg">
	<g>
		<path d="M419.535,6.68C416.752,2.505,412.064,0,407.054,0h-76v90h144.027L419.535,6.68z" fill="#f5f5f5" data-original="#000000" style="" class=""/>
	</g>
</g>
<g xmlns="http://www.w3.org/2000/svg">
	<g>
		<rect x="241.05" width="60" height="90" fill="#f5f5f5" data-original="#000000" style="" class=""/>
	</g>
</g>
<g xmlns="http://www.w3.org/2000/svg">
	<g>
		<path d="M331.054,120v107c0,5.537-3.047,10.62-7.925,13.228c-4.816,2.583-10.75,2.35-15.396-0.747l-36.68-24.448l-36.68,24.448    c-4.6,3.047-10.532,3.354-15.396,0.747c-4.878-2.607-7.925-7.69-7.925-13.228V120h-151v153.516    c14.656,2.988,27.772,10.259,37.974,20.451l4.902-3.408c22.91-15.908,49.731-24.316,77.578-24.316    c32.668,0,64.133,11.821,88.626,33.296c2.051,1.729,4.819,2.461,6.621,2.461h56.302c32.476,0,58.491,25.093,59.941,57.451    l45.483-52.5c11.836-12.854,27.845-19.83,44.575-19.918V120H331.054z M437.054,272h-60c-8.291,0-15-6.709-15-15    c0-8.291,6.709-15,15-15h60c8.291,0,15,6.709,15,15S445.345,272,437.054,272z" fill="#f5f5f5" data-original="#000000" style="" class=""/>
	</g>
</g>
<g xmlns="http://www.w3.org/2000/svg">
	<g>
		<path d="M135.054,0c-5.01,0-9.697,2.505-12.48,6.68L67.027,90h144.027V0H135.054z" fill="#f5f5f5" data-original="#000000" style="" class=""/>
	</g>
</g>
<g xmlns="http://www.w3.org/2000/svg">
</g>
<g xmlns="http://www.w3.org/2000/svg">
</g>
<g xmlns="http://www.w3.org/2000/svg">
</g>
<g xmlns="http://www.w3.org/2000/svg">
</g>
<g xmlns="http://www.w3.org/2000/svg">
</g>
<g xmlns="http://www.w3.org/2000/svg">
</g>
<g xmlns="http://www.w3.org/2000/svg">
</g>
<g xmlns="http://www.w3.org/2000/svg">
</g>
<g xmlns="http://www.w3.org/2000/svg">
</g>
<g xmlns="http://www.w3.org/2000/svg">
</g>
<g xmlns="http://www.w3.org/2000/svg">
</g>
<g xmlns="http://www.w3.org/2000/svg">
</g>
<g xmlns="http://www.w3.org/2000/svg">
</g>
<g xmlns="http://www.w3.org/2000/svg">
</g>
<g xmlns="http://www.w3.org/2000/svg">
</g>
</g></svg>
