<svg id="Layer_5" enable-background="new 0 0 62 48" height="512" viewBox="0 0 62 48" width="512" xmlns="http://www.w3.org/2000/svg" xmlns:xlink="http://www.w3.org/1999/xlink"><linearGradient id="SVGID_1_" gradientUnits="userSpaceOnUse" x1="31" x2="31" y1="48" y2="0"><stop offset="0" stop-color="#9f2fff"/><stop offset="1" stop-color="#0bb1d3"/></linearGradient><path d="m47 38c-1.654 0-3 1.346-3 3s1.346 3 3 3 3-1.346 3-3-1.346-3-3-3zm0 4c-.552 0-1-.448-1-1s.448-1 1-1 1 .448 1 1-.448 1-1 1zm-34-4c-1.654 0-3 1.346-3 3s1.346 3 3 3 3-1.346 3-3-1.346-3-3-3zm0 4c-.552 0-1-.448-1-1s.448-1 1-1 1 .448 1 1-.448 1-1 1zm-11 2h4.685c1.126 2.361 3.53 4 6.315 4s5.188-1.639 6.315-4h4.87c.414 1.161 1.514 2 2.816 2h6c1.302 0 2.402-.839 2.816-2h4.869c1.126 2.361 3.53 4 6.315 4s5.188-1.639 6.315-4h3.969c2.6 0 4.715-2.115 4.715-4.716 0-.239-.019-.478-.055-.718l-2.913-18.935c-.68-4.422-4.422-7.631-8.895-7.631h-10.137v-6c1.103 0 2-.897 2-2v-2c0-1.103-.897-2-2-2h-38c-1.103 0-2 .897-2 2v2c0 1.103.897 2 2 2v32c-1.103 0-2 .897-2 2v2c0 1.103.897 2 2 2zm11 2c-2.757 0-5-2.243-5-5s2.243-5 5-5 5 2.243 5 5-2.243 5-5 5zm6.92-6h4.08v2h-4.08c.047-.328.08-.66.08-1s-.033-.672-.08-1zm6.08 3v-4c0-.552.448-1 1-1h1v6h-1c-.552 0-1-.448-1-1zm8 0c0 .552-.448 1-1 1h-3v-6h3c.552 0 1 .448 1 1zm2-1v-2h4.08c-.047.328-.08.66-.08 1s.033.672.08 1zm4-22h17.066l.308 2h-12.374c-1.654 0-3 1.346-3 3v7h11 5.911l.923 6h-6.519c-1.126-2.361-3.53-4-6.315-4s-5.188 1.639-6.315 4h-.685zm18.604 10h-3.604v-1c0-.552.448-1 1-1h2.296zm-2.604-4c-1.654 0-3 1.346-3 3v1h-9v-5c0-.551.448-1 1-1h12.681l.308 2zm-9 20c-2.757 0-5-2.243-5-5s2.243-5 5-5 5 2.243 5 5-2.243 5-5 5zm10.284-4h-3.364c.047-.328.08-.66.08-1s-.033-.672-.08-1h5.972c-.317 1.149-1.36 2-2.608 2zm-7.147-28c2.784 0 5.199 1.6 6.326 4h-16.463v-4zm-48.138-12h38.001v2h-38zm23.001 18h-8v-8h8zm-5 2v8h-8v-8h3zm2 0h5 3v8h-8zm5-2v-10h-12v10h-5v10h-2v-24h26v24h-2v-10zm-23-14h2v26h30v-26h2v32h-2.184c-.414-1.161-1.514-2-2.816-2h-6c-1.302 0-2.402.839-2.816 2h-4.869c-1.126-2.361-3.53-4-6.315-4s-5.188 1.639-6.315 4h-2.685zm-2 34h4.08c-.047.328-.08.66-.08 1s.033.672.08 1h-4.08z" fill="url(#SVGID_1_)"/></svg>